<svg width="12" height="12" viewBox="0 0 12 12" fill="none" xmlns="http://www.w3.org/2000/svg">
<path d="M10 12H2C1.46957 12 0.960859 11.7893 0.585787 11.4142C0.210714 11.0391 0 10.5304 0 10V2C0 1.46957 0.210714 0.960859 0.585787 0.585787C0.960859 0.210714 1.46957 0 2 0H4.66667C4.84348 0 5.01305 0.0702379 5.13807 0.195262C5.2631 0.320286 5.33333 0.489856 5.33333 0.666667C5.33333 0.843478 5.2631 1.01305 5.13807 1.13807C5.01305 1.2631 4.84348 1.33333 4.66667 1.33333H2C1.82319 1.33333 1.65362 1.40357 1.5286 1.5286C1.40357 1.65362 1.33333 1.82319 1.33333 2V10C1.33333 10.1768 1.40357 10.3464 1.5286 10.4714C1.65362 10.5964 1.82319 10.6667 2 10.6667H10C10.1768 10.6667 10.3464 10.5964 10.4714 10.4714C10.5964 10.3464 10.6667 10.1768 10.6667 10V7.33333C10.6667 7.15652 10.7369 6.98695 10.8619 6.86193C10.987 6.73691 11.1565 6.66667 11.3333 6.66667C11.5101 6.66667 11.6797 6.73691 11.8047 6.86193C11.9298 6.98695 12 7.15652 12 7.33333V10C12 10.5304 11.7893 11.0391 11.4142 11.4142C11.0391 11.7893 10.5304 12 10 12Z" fill="#1F1F1F"/>
<path d="M12 0.699978V4.03331C11.9994 4.16493 11.9598 4.29341 11.8862 4.40255C11.8126 4.5117 11.7084 4.59663 11.5867 4.64664C11.5076 4.68396 11.4208 4.70223 11.3333 4.69998C11.2456 4.70048 11.1586 4.68367 11.0774 4.65049C10.9962 4.61731 10.9223 4.56843 10.86 4.50664L9.63334 3.33331L6.44001 6.52664C6.37803 6.58913 6.3043 6.63873 6.22306 6.67257C6.14182 6.70642 6.05468 6.72384 5.96667 6.72384C5.87867 6.72384 5.79153 6.70642 5.71029 6.67257C5.62905 6.63873 5.55532 6.58913 5.49334 6.52664C5.43086 6.46467 5.38126 6.39093 5.34741 6.3097C5.31357 6.22846 5.29614 6.14132 5.29614 6.05331C5.29614 5.9653 5.31357 5.87817 5.34741 5.79693C5.38126 5.71569 5.43086 5.64195 5.49334 5.57998L8.66668 2.36664L7.49334 1.17331C7.39746 1.08181 7.33103 0.963809 7.30253 0.834376C7.27403 0.704943 7.28476 0.569952 7.33334 0.446644C7.38651 0.316126 7.47967 0.205816 7.59945 0.131553C7.71923 0.0572905 7.85946 0.0228967 8.00001 0.0333108H11.3333C11.3885 0.0237271 11.4449 0.0237271 11.5 0.0333108C11.5308 0.0273713 11.5625 0.0273713 11.5933 0.0333108C11.6733 0.064822 11.746 0.112451 11.8068 0.173237C11.8675 0.234022 11.9152 0.306664 11.9467 0.386644C11.9526 0.417472 11.9526 0.44915 11.9467 0.479977C11.9815 0.548099 11.9998 0.623472 12 0.699978Z" fill="#1F1F1F"/>
</svg>
